M48
; DRILL file {KiCad (5.1.6)-1} date 09/14/20 21:25:32
; FORMAT={-:-/ absolute / metric / decimal}
; #@! TF.CreationDate,2020-09-14T21:25:32+02:00
; #@! TF.GenerationSoftware,Kicad,Pcbnew,(5.1.6)-1
; #@! TF.FileFunction,NonPlated,1,2,NPTH
FMAT,2
METRIC
T1C1.700
T2C3.050
T3C4.000
%
G90
G05
T1
X130.605Y-105.197
X140.542Y-107.309
X274.18Y-57.77
X284.34Y-57.77
X94.035Y-116.899
X103.973Y-119.012
X243.784Y-80.754
X253.722Y-78.641
X293.23Y-57.77
X303.39Y-57.77
X106.615Y-80.622
X116.552Y-82.735
X216.531Y-67.071
X226.469Y-64.958
X260.49Y-37.22
X270.65Y-37.22
X154.595Y-129.772
X164.532Y-131.884
X247.047Y-119.012
X256.985Y-116.899
X240.521Y-42.496
X250.459Y-40.384
X34.63Y-114.92
X44.79Y-114.92
X299.889Y-95.87
X310.049Y-95.87
X119.195Y-44.345
X129.132Y-46.457
X253.798Y-59.149
X263.736Y-57.037
X143.883Y-88.544
X153.82Y-90.656
X221.887Y-46.457
X231.825Y-44.344
X279.54Y-38.72
X289.7Y-38.72
X203.253Y-50.417
X213.191Y-48.305
X61.31Y-38.72
X71.47Y-38.72
X317.64Y-38.72
X327.8Y-38.72
X87.981Y-76.662
X97.919Y-78.774
X143.185Y-68.92
X153.122Y-71.032
X197.897Y-71.031
X207.835Y-68.919
X179.263Y-74.992
X189.201Y-72.88
X41.764Y-95.87
X51.924Y-95.87
X72.72Y-95.87
X82.88Y-95.87
X80.36Y-37.22
X90.52Y-37.22
X137.829Y-48.306
X147.766Y-50.418
X233.769Y-102.358
X243.707Y-100.246
X207.451Y-127.428
X217.389Y-125.316
X349.895Y-119.683
X360.055Y-119.683
X42.86Y-57.77
X53.02Y-57.77
X42.26Y-38.72
X52.42Y-38.72
X111.971Y-101.236
X121.908Y-103.349
X341.453Y-33.957
X351.613Y-33.957
X105.918Y-60.998
X115.855Y-63.111
X252.403Y-98.397
X262.341Y-96.285
X126.643Y-123.83
X136.581Y-125.943
X206.516Y-88.675
X216.454Y-86.563
X345.625Y-53.008
X355.785Y-53.008
X196.502Y-110.28
X206.44Y-108.167
X283.22Y-76.82
X293.38Y-76.82
X298.59Y-38.72
X308.75Y-38.72
X93.337Y-97.276
X103.275Y-99.388
X264.17Y-76.82
X274.33Y-76.82
X100.561Y-40.384
X110.499Y-42.497
X235.165Y-63.11
X245.103Y-60.998
X317.049Y-57.77
X327.209Y-57.77
X125.249Y-84.583
X135.186Y-86.695
X225.15Y-84.714
X235.088Y-82.602
X330.845Y-119.683
X341.005Y-119.683
X184.62Y-54.378
X194.558Y-52.266
X273.695Y-95.87
X283.855Y-95.87
X41.176Y-76.82
X51.336Y-76.82
X67.37Y-76.82
X77.53Y-76.82
X87.283Y-57.038
X97.221Y-59.15
X349.895Y-72.057
X360.055Y-72.057
X149.239Y-109.158
X159.176Y-111.27
X187.883Y-92.636
X197.821Y-90.523
X311.795Y-119.683
X321.955Y-119.683
X124.551Y-64.959
X134.488Y-67.072
X215.135Y-106.319
X225.073Y-104.206
X314.176Y-76.82
X324.336Y-76.82
X156.463Y-52.266
X166.4Y-54.379
X330.845Y-100.632
X341.005Y-100.632
X66.67Y-57.77
X76.83Y-57.77
T2
X34.944Y-88.87
X202.235Y-135.693
X225.515Y-130.745
X118.517Y-129.259
X141.797Y-134.208
X307.356Y-83.82
X331.156Y-83.82
X58.744Y-88.87
T3
X98.306Y-98.332
X269.25Y-76.82
X105.53Y-41.441
X240.134Y-62.054
X322.13Y-57.77
X130.217Y-85.639
X230.119Y-83.658
X335.925Y-119.683
X189.589Y-53.322
X278.775Y-95.87
X46.256Y-76.82
X72.45Y-76.82
X92.252Y-58.094
X354.975Y-72.057
X154.207Y-110.214
X192.852Y-91.58
X316.875Y-119.683
X129.519Y-66.015
X220.104Y-105.262
X307.356Y-68.58
X319.256Y-76.82
X331.156Y-68.58
X161.431Y-53.323
X335.925Y-100.632
X71.75Y-57.77
X135.573Y-106.253
X279.26Y-57.77
X99.004Y-117.955
X248.753Y-79.697
X298.31Y-57.77
X111.583Y-81.678
X221.5Y-66.015
X265.57Y-37.22
X159.563Y-130.828
X252.016Y-117.955
X245.49Y-41.44
X39.71Y-114.92
X304.969Y-95.87
X124.163Y-45.401
X258.767Y-58.093
X148.851Y-89.6
X226.856Y-45.4
X284.62Y-38.72
X208.222Y-49.361
X66.39Y-38.72
X322.72Y-38.72
X92.95Y-77.718
X148.153Y-69.976
X202.866Y-69.975
X184.232Y-73.936
X34.944Y-104.11
X46.844Y-95.87
X58.744Y-104.11
X77.8Y-95.87
X85.44Y-37.22
X142.797Y-49.362
X238.738Y-101.302
X199.067Y-120.786
X212.42Y-126.372
X222.346Y-115.838
X354.975Y-119.683
X47.94Y-57.77
X47.34Y-38.72
X116.939Y-102.293
X346.533Y-33.957
X110.886Y-62.055
X257.372Y-97.341
X121.686Y-114.352
X131.612Y-124.887
X144.966Y-119.301
X211.485Y-87.619
X350.705Y-53.008
X201.471Y-109.223
X288.3Y-76.82
X303.67Y-38.72
T0
M30
