G04 #@! TF.GenerationSoftware,KiCad,Pcbnew,(5.1.6)-1*
G04 #@! TF.CreationDate,2020-09-14T21:25:29+02:00*
G04 #@! TF.ProjectId,arisu,61726973-752e-46b6-9963-61645f706362,1.1*
G04 #@! TF.SameCoordinates,Original*
G04 #@! TF.FileFunction,Legend,Top*
G04 #@! TF.FilePolarity,Positive*
%FSLAX46Y46*%
G04 Gerber Fmt 4.6, Leading zero omitted, Abs format (unit mm)*
G04 Created by KiCad (PCBNEW (5.1.6)-1) date 2020-09-14 21:25:29*
%MOMM*%
%LPD*%
G01*
G04 APERTURE LIST*
%ADD10O,0.752000X1.102000*%
%ADD11O,1.002000X2.502000*%
%ADD12O,1.002000X1.802000*%
%ADD13R,1.802000X1.802000*%
%ADD14C,4.502000*%
%ADD15C,2.302000*%
%ADD16C,4.102000*%
%ADD17C,1.802000*%
%ADD18C,3.152000*%
G04 APERTURE END LIST*
%LPC*%
D10*
X174275000Y-30530000D03*
X172575000Y-30530000D03*
X173425000Y-30530000D03*
X175125000Y-30530000D03*
X175975000Y-30530000D03*
X176825000Y-30530000D03*
X177675000Y-30530000D03*
X178525000Y-30530000D03*
X172575000Y-29205000D03*
X173430000Y-29205000D03*
X174280000Y-29205000D03*
X175130000Y-29205000D03*
X175980000Y-29205000D03*
X176830000Y-29205000D03*
X177680000Y-29205000D03*
X178530000Y-29205000D03*
D11*
X171225000Y-29550000D03*
X179875000Y-29550000D03*
D12*
X171225000Y-26170000D03*
X179875000Y-26170000D03*
D13*
X203786000Y-26874000D03*
X198706000Y-26874000D03*
X201246000Y-26874000D03*
X196166000Y-26874000D03*
X145730000Y-26460000D03*
X150810000Y-26460000D03*
X148270000Y-26460000D03*
X153340000Y-26450000D03*
D14*
X241060000Y-120609000D03*
X345450000Y-110158000D03*
D15*
X49880000Y-33640000D03*
X43530000Y-36180000D03*
D16*
X47340000Y-38720000D03*
D17*
X42260000Y-38720000D03*
X52420000Y-38720000D03*
X53020000Y-57770000D03*
X42860000Y-57770000D03*
D16*
X47940000Y-57770000D03*
D15*
X44130000Y-55230000D03*
X50480000Y-52690000D03*
D17*
X51336250Y-76820000D03*
X41176250Y-76820000D03*
D16*
X46256250Y-76820000D03*
D15*
X42446250Y-74280000D03*
X48796250Y-71740000D03*
D18*
X58743750Y-88870000D03*
X34943750Y-88870000D03*
D16*
X34943750Y-104110000D03*
X58743750Y-104110000D03*
D17*
X51923750Y-95870000D03*
X41763750Y-95870000D03*
D16*
X46843750Y-95870000D03*
D15*
X43033750Y-93330000D03*
X49383750Y-90790000D03*
D17*
X44790000Y-114920000D03*
X34630000Y-114920000D03*
D16*
X39710000Y-114920000D03*
D15*
X35900000Y-112380000D03*
X42250000Y-109840000D03*
X68930000Y-33640000D03*
X62580000Y-36180000D03*
D16*
X66390000Y-38720000D03*
D17*
X61310000Y-38720000D03*
X71470000Y-38720000D03*
D15*
X74290000Y-52690000D03*
X67940000Y-55230000D03*
D16*
X71750000Y-57770000D03*
D17*
X66670000Y-57770000D03*
X76830000Y-57770000D03*
D15*
X74990000Y-71740000D03*
X68640000Y-74280000D03*
D16*
X72450000Y-76820000D03*
D17*
X67370000Y-76820000D03*
X77530000Y-76820000D03*
D15*
X80340000Y-90790000D03*
X73990000Y-93330000D03*
D16*
X77800000Y-95870000D03*
D17*
X72720000Y-95870000D03*
X82880000Y-95870000D03*
D15*
X87980000Y-32139600D03*
X81630000Y-34679600D03*
D16*
X85440000Y-37219600D03*
D17*
X80360000Y-37219600D03*
X90520000Y-37219600D03*
D15*
X95793083Y-53652921D03*
X89053750Y-54817176D03*
D16*
X92252397Y-58093815D03*
D17*
X87283407Y-57037623D03*
X97221387Y-59150006D03*
D15*
X96490683Y-73276821D03*
X89751350Y-74441076D03*
D16*
X92949997Y-77717715D03*
D17*
X87981007Y-76661523D03*
X97918987Y-78773906D03*
D15*
X101846783Y-93890921D03*
X95107450Y-95055176D03*
D16*
X98306097Y-98331815D03*
D17*
X93337107Y-97275623D03*
X103275087Y-99388006D03*
X103972815Y-119011586D03*
X94034835Y-116899203D03*
D16*
X99003825Y-117955394D03*
D15*
X95805178Y-114678756D03*
X102544511Y-113514500D03*
X109070683Y-36999621D03*
X102331350Y-38163876D03*
D16*
X105529997Y-41440515D03*
D17*
X100561007Y-40384323D03*
X110498987Y-42496706D03*
D15*
X114427183Y-57613621D03*
X107687850Y-58777876D03*
D16*
X110886497Y-62054515D03*
D17*
X105917507Y-60998323D03*
X115855487Y-63110706D03*
D15*
X115124183Y-77237521D03*
X108384850Y-78401776D03*
D16*
X111583497Y-81678415D03*
D17*
X106614507Y-80622223D03*
X116552487Y-82734606D03*
D15*
X120480183Y-97851621D03*
X113740850Y-99015876D03*
D16*
X116939497Y-102292515D03*
D17*
X111970507Y-101236323D03*
X121908487Y-103348706D03*
D15*
X127704183Y-40960321D03*
X120964850Y-42124576D03*
D16*
X124163497Y-45401215D03*
D17*
X119194507Y-44345023D03*
X129132487Y-46457406D03*
D15*
X133060183Y-61574421D03*
X126320850Y-62738676D03*
D16*
X129519497Y-66015315D03*
D17*
X124550507Y-64959123D03*
X134488487Y-67071506D03*
D15*
X133758183Y-81198321D03*
X127018850Y-82362576D03*
D16*
X130217497Y-85639215D03*
D17*
X125248507Y-84583023D03*
X135186487Y-86695406D03*
D15*
X139114183Y-101812321D03*
X132374850Y-102976576D03*
D16*
X135573497Y-106253215D03*
D17*
X130604507Y-105197023D03*
X140542487Y-107309406D03*
D18*
X141796928Y-134207756D03*
X118517015Y-129259458D03*
D16*
X121685589Y-114352488D03*
X144965502Y-119300786D03*
D17*
X136581343Y-125942765D03*
X126643363Y-123830382D03*
D16*
X131612353Y-124886574D03*
D15*
X128413706Y-121609935D03*
X135153039Y-120445679D03*
X146338183Y-44921021D03*
X139598850Y-46085276D03*
D16*
X142797497Y-49361915D03*
D17*
X137828507Y-48305723D03*
X147766487Y-50418106D03*
D15*
X151694183Y-65535121D03*
X144954850Y-66699376D03*
D16*
X148153497Y-69976015D03*
D17*
X143184507Y-68919823D03*
X153122487Y-71032206D03*
D15*
X152392183Y-85159021D03*
X145652850Y-86323276D03*
D16*
X148851497Y-89599915D03*
D17*
X143882507Y-88543723D03*
X153820487Y-90656106D03*
D15*
X157748183Y-105773121D03*
X151008850Y-106937376D03*
D16*
X154207497Y-110214015D03*
D17*
X149238507Y-109157823D03*
X159176487Y-111270206D03*
D15*
X163104183Y-126387321D03*
X156364850Y-127551576D03*
D16*
X159563497Y-130828215D03*
D17*
X154594507Y-129772023D03*
X164532487Y-131884406D03*
D15*
X164972183Y-48881721D03*
X158232850Y-50045976D03*
D16*
X161431497Y-53322615D03*
D17*
X156462507Y-52266423D03*
X166400487Y-54378806D03*
D15*
X185660518Y-68438912D03*
X179977377Y-72243646D03*
D16*
X184232215Y-73935997D03*
D17*
X179263225Y-74992188D03*
X189201205Y-72879806D03*
D15*
X194280518Y-86082512D03*
X188597377Y-89887246D03*
D16*
X192852215Y-91579597D03*
D17*
X187883225Y-92635788D03*
X197821205Y-90523406D03*
D15*
X202899518Y-103726412D03*
X197216377Y-107531146D03*
D16*
X201471215Y-109223497D03*
D17*
X196502225Y-110279688D03*
X206440205Y-108167306D03*
D15*
X191017518Y-47824812D03*
X185334377Y-51629546D03*
D16*
X189589215Y-53321897D03*
D17*
X184620225Y-54378088D03*
X194558205Y-52265706D03*
D15*
X204294518Y-64478212D03*
X198611377Y-68282946D03*
D16*
X202866215Y-69975297D03*
D17*
X197897225Y-71031488D03*
X207835205Y-68919106D03*
D15*
X212913518Y-82121812D03*
X207230377Y-85926546D03*
D16*
X211485215Y-87618897D03*
D17*
X206516225Y-88675088D03*
X216454205Y-86562706D03*
D15*
X221532518Y-99765312D03*
X215849377Y-103570046D03*
D16*
X220104215Y-105262397D03*
D17*
X215135225Y-106318588D03*
X225073205Y-104206206D03*
D18*
X225515051Y-130744753D03*
X202235138Y-135693051D03*
D16*
X199066564Y-120786082D03*
X222346477Y-115837784D03*
D17*
X217388702Y-125315678D03*
X207450723Y-127428060D03*
D16*
X212419713Y-126371869D03*
D15*
X208164875Y-124679518D03*
X213848016Y-120874784D03*
X209650518Y-43864112D03*
X203967377Y-47668846D03*
D16*
X208222215Y-49361197D03*
D17*
X203253225Y-50417388D03*
X213191205Y-48305006D03*
D15*
X222928518Y-60517512D03*
X217245377Y-64322246D03*
D16*
X221500215Y-66014597D03*
D17*
X216531225Y-67070788D03*
X226469205Y-64958406D03*
D15*
X231547518Y-78161012D03*
X225864377Y-81965746D03*
D16*
X230119215Y-83658097D03*
D17*
X225150225Y-84714288D03*
X235088205Y-82601906D03*
D15*
X240166518Y-95804612D03*
X234483377Y-99609346D03*
D16*
X238738215Y-101301697D03*
D17*
X233769225Y-102357888D03*
X243707205Y-100245506D03*
D15*
X228284518Y-39903412D03*
X222601377Y-43708146D03*
D16*
X226856215Y-45400497D03*
D17*
X221887225Y-46456688D03*
X231825205Y-44344306D03*
D15*
X241562518Y-56556812D03*
X235879377Y-60361546D03*
D16*
X240134215Y-62053897D03*
D17*
X235165225Y-63110088D03*
X245103205Y-60997706D03*
D15*
X250181518Y-74200312D03*
X244498377Y-78005046D03*
D16*
X248753215Y-79697397D03*
D17*
X243784225Y-80753588D03*
X253722205Y-78641206D03*
D15*
X258800518Y-91843912D03*
X253117377Y-95648646D03*
D16*
X257372215Y-97340997D03*
D17*
X252403225Y-98397188D03*
X262341205Y-96284806D03*
X256984633Y-116899126D03*
X247046653Y-119011509D03*
D16*
X252015643Y-117955318D03*
D15*
X247760805Y-116262966D03*
X253443946Y-112458232D03*
X246918518Y-35942712D03*
X241235377Y-39747446D03*
D16*
X245490215Y-41439797D03*
D17*
X240521225Y-42495988D03*
X250459205Y-40383606D03*
D15*
X260195518Y-52596112D03*
X254512377Y-56400846D03*
D16*
X258767215Y-58093197D03*
D17*
X253798225Y-59149388D03*
X263736205Y-57037006D03*
D15*
X271790000Y-71740000D03*
X265440000Y-74280000D03*
D16*
X269250000Y-76820000D03*
D17*
X264170000Y-76820000D03*
X274330000Y-76820000D03*
D15*
X281315000Y-90790000D03*
X274965000Y-93330000D03*
D16*
X278775000Y-95870000D03*
D17*
X273695000Y-95870000D03*
X283855000Y-95870000D03*
D15*
X268110000Y-32139600D03*
X261760000Y-34679600D03*
D16*
X265570000Y-37219600D03*
D17*
X260490000Y-37219600D03*
X270650000Y-37219600D03*
D15*
X281800000Y-52690000D03*
X275450000Y-55230000D03*
D16*
X279260000Y-57770000D03*
D17*
X274180000Y-57770000D03*
X284340000Y-57770000D03*
D15*
X290840000Y-71740000D03*
X284490000Y-74280000D03*
D16*
X288300000Y-76820000D03*
D17*
X283220000Y-76820000D03*
X293380000Y-76820000D03*
X310048750Y-95870000D03*
X299888750Y-95870000D03*
D16*
X304968750Y-95870000D03*
D15*
X301158750Y-93330000D03*
X307508750Y-90790000D03*
X287160000Y-33640000D03*
X280810000Y-36180000D03*
D16*
X284620000Y-38720000D03*
D17*
X279540000Y-38720000D03*
X289700000Y-38720000D03*
D15*
X300850000Y-52690000D03*
X294500000Y-55230000D03*
D16*
X298310000Y-57770000D03*
D17*
X293230000Y-57770000D03*
X303390000Y-57770000D03*
D18*
X331156250Y-83820000D03*
X307356250Y-83820000D03*
D16*
X307356250Y-68580000D03*
X331156250Y-68580000D03*
D17*
X324336250Y-76820000D03*
X314176250Y-76820000D03*
D16*
X319256250Y-76820000D03*
D15*
X315446250Y-74280000D03*
X321796250Y-71740000D03*
X319415000Y-114603000D03*
X313065000Y-117143000D03*
D16*
X316875000Y-119683000D03*
D17*
X311795000Y-119683000D03*
X321955000Y-119683000D03*
D15*
X306210000Y-33640000D03*
X299860000Y-36180000D03*
D16*
X303670000Y-38720000D03*
D17*
X298590000Y-38720000D03*
X308750000Y-38720000D03*
X327209500Y-57770000D03*
X317049500Y-57770000D03*
D16*
X322129500Y-57770000D03*
D15*
X318319500Y-55230000D03*
X324669500Y-52690000D03*
X338465000Y-95552500D03*
X332115000Y-98092500D03*
D16*
X335925000Y-100632500D03*
D17*
X330845000Y-100632500D03*
X341005000Y-100632500D03*
D15*
X338465000Y-114603000D03*
X332115000Y-117143000D03*
D16*
X335925000Y-119683000D03*
D17*
X330845000Y-119683000D03*
X341005000Y-119683000D03*
D15*
X325260000Y-33640000D03*
X318910000Y-36180000D03*
D16*
X322720000Y-38720000D03*
D17*
X317640000Y-38720000D03*
X327800000Y-38720000D03*
D15*
X349073000Y-28877500D03*
X342723000Y-31417500D03*
D16*
X346533000Y-33957500D03*
D17*
X341453000Y-33957500D03*
X351613000Y-33957500D03*
D15*
X353245000Y-47927500D03*
X346895000Y-50467500D03*
D16*
X350705000Y-53007500D03*
D17*
X345625000Y-53007500D03*
X355785000Y-53007500D03*
D15*
X357515000Y-66977500D03*
X351165000Y-69517500D03*
D16*
X354975000Y-72057500D03*
D17*
X349895000Y-72057500D03*
X360055000Y-72057500D03*
D15*
X357515000Y-114603000D03*
X351165000Y-117143000D03*
D16*
X354975000Y-119683000D03*
D17*
X349895000Y-119683000D03*
X360055000Y-119683000D03*
D14*
X56865000Y-48245000D03*
X51197500Y-114920000D03*
X121827000Y-27932500D03*
X109959000Y-120609000D03*
X229193000Y-27932500D03*
X341180000Y-43482500D03*
M02*
