M48
; DRILL file {KiCad (5.1.6)-1} date 09/14/20 21:25:32
; FORMAT={-:-/ absolute / metric / decimal}
; #@! TF.CreationDate,2020-09-14T21:25:32+02:00
; #@! TF.GenerationSoftware,Kicad,Pcbnew,(5.1.6)-1
; #@! TF.FileFunction,Plated,1,2,PTH
FMAT,2
METRIC
T1C0.400
T2C0.600
T3C1.000
T4C1.500
T5C2.200
%
G90
G05
T1
X158.496Y-34.036
X161.052Y-34.02
X167.112Y-33.802
X168.0Y-30.12
X168.148Y-60.706
X169.418Y-59.944
X169.55Y-73.75
X169.86Y-42.26
X170.61Y-60.03
X170.64Y-51.98
X170.71Y-41.01
X171.21Y-40.11
X171.59Y-57.5
X171.64Y-63.6
X171.704Y-66.294
X171.71Y-39.21
X172.21Y-38.31
X172.225Y-32.499
X172.71Y-37.41
X172.96Y-52.79
X173.21Y-36.51
X174.21Y-38.31
X174.71Y-39.21
X175.21Y-40.11
X175.3Y-56.75
X175.71Y-41.01
X176.022Y-34.036
X177.546Y-32.512
X177.93Y-38.82
X178.85Y-51.98
X179.93Y-54.79
X180.327Y-32.017
X181.71Y-35.83
X182.71Y-44.05
X183.21Y-44.95
X183.31Y-52.17
X183.32Y-51.08
X183.515Y-60.071
X183.68Y-27.94
X183.71Y-45.85
X183.9Y-40.33
X183.97Y-50.22
X184.137Y-32.017
X184.18Y-38.32
X184.21Y-46.75
X184.86Y-33.23
X186.124Y-39.174
X187.06Y-47.78
X188.05Y-32.168
X188.05Y-35.83
X192.27Y-36.89
X192.28Y-31.95
X193.548Y-33.528
X194.94Y-56.46
X195.2Y-33.98
X195.94Y-56.46
X197.156Y-79.636
X199.81Y-97.56
X204.759Y-115.201
X225.677Y-123.933
X172.575Y-29.205
X172.575Y-30.53
X173.425Y-30.53
X173.43Y-29.205
X174.275Y-30.53
X174.28Y-29.205
X175.125Y-30.53
X175.13Y-29.205
X175.975Y-30.53
X175.98Y-29.205
X176.825Y-30.53
X176.83Y-29.205
X177.675Y-30.53
X177.68Y-29.205
X178.525Y-30.53
X178.53Y-29.205
T3
X145.73Y-26.46
X203.786Y-26.874
X150.81Y-26.46
X153.34Y-26.45
X196.166Y-26.874
X148.27Y-26.46
X198.706Y-26.874
X201.246Y-26.874
T4
X318.91Y-36.18
X325.26Y-33.64
X89.751Y-74.441
X96.491Y-73.277
X144.955Y-66.699
X151.694Y-65.535
X198.611Y-68.283
X204.295Y-64.478
X179.977Y-72.244
X185.661Y-68.439
X43.034Y-93.33
X49.384Y-90.79
X73.99Y-93.33
X80.34Y-90.79
X81.63Y-34.68
X87.98Y-32.14
X139.599Y-46.085
X146.338Y-44.921
X234.483Y-99.609
X240.167Y-95.805
X208.165Y-124.68
X213.848Y-120.875
X351.165Y-117.143
X357.515Y-114.603
X44.13Y-55.23
X50.48Y-52.69
X43.53Y-36.18
X49.88Y-33.64
X113.741Y-99.016
X120.48Y-97.852
X342.723Y-31.417
X349.073Y-28.877
X107.688Y-58.778
X114.427Y-57.614
X253.117Y-95.649
X258.801Y-91.844
X128.414Y-121.61
X135.153Y-120.446
X207.23Y-85.927
X212.914Y-82.122
X346.895Y-50.468
X353.245Y-47.927
X197.216Y-107.531
X202.9Y-103.726
X284.49Y-74.28
X290.84Y-71.74
X299.86Y-36.18
X306.21Y-33.64
X95.107Y-95.055
X101.847Y-93.891
X265.44Y-74.28
X271.79Y-71.74
X102.331Y-38.164
X109.071Y-37.0
X235.879Y-60.362
X241.563Y-56.557
X318.32Y-55.23
X324.669Y-52.69
X127.019Y-82.363
X133.758Y-81.198
X225.864Y-81.966
X231.548Y-78.161
X332.115Y-117.143
X338.465Y-114.603
X185.334Y-51.63
X191.018Y-47.825
X274.965Y-93.33
X281.315Y-90.79
X42.446Y-74.28
X48.796Y-71.74
X68.64Y-74.28
X74.99Y-71.74
X89.054Y-54.817
X95.793Y-53.653
X351.165Y-69.517
X357.515Y-66.977
X151.009Y-106.937
X157.748Y-105.773
X188.597Y-89.887
X194.281Y-86.083
X313.065Y-117.143
X319.415Y-114.603
X126.321Y-62.739
X133.06Y-61.574
X215.849Y-103.57
X221.533Y-99.765
X315.446Y-74.28
X321.796Y-71.74
X158.233Y-50.046
X164.972Y-48.882
X332.115Y-98.093
X338.465Y-95.552
X67.94Y-55.23
X74.29Y-52.69
X132.375Y-102.977
X139.114Y-101.812
X275.45Y-55.23
X281.8Y-52.69
X95.805Y-114.679
X102.545Y-113.514
X244.498Y-78.005
X250.182Y-74.2
X294.5Y-55.23
X300.85Y-52.69
X108.385Y-78.402
X115.124Y-77.238
X217.245Y-64.322
X222.929Y-60.518
X261.76Y-34.68
X268.11Y-32.14
X156.365Y-127.552
X163.104Y-126.387
X247.761Y-116.263
X253.444Y-112.458
X241.235Y-39.747
X246.919Y-35.943
X35.9Y-112.38
X42.25Y-109.84
X301.159Y-93.33
X307.509Y-90.79
X120.965Y-42.125
X127.704Y-40.96
X254.512Y-56.401
X260.196Y-52.596
X145.653Y-86.323
X152.392Y-85.159
X222.601Y-43.708
X228.285Y-39.903
X280.81Y-36.18
X287.16Y-33.64
X203.967Y-47.669
X209.651Y-43.864
X62.58Y-36.18
X68.93Y-33.64
T5
X51.197Y-114.92
X345.45Y-110.158
X241.06Y-120.609
X56.865Y-48.245
X121.827Y-27.932
X341.18Y-43.482
X229.193Y-27.932
X109.959Y-120.609
T2
G00X171.225Y-25.77
M15
G01X171.225Y-26.57
M16
G05
G00X171.225Y-28.8
M15
G01X171.225Y-30.3
M16
G05
G00X179.875Y-25.77
M15
G01X179.875Y-26.57
M16
G05
G00X179.875Y-28.8
M15
G01X179.875Y-30.3
M16
G05
T0
M30
