M48
; DRILL file {KiCad (5.1.6)-1} date 09/14/20 21:11:28
; FORMAT={-:-/ absolute / metric / decimal}
; #@! TF.CreationDate,2020-09-14T21:11:28+02:00
; #@! TF.GenerationSoftware,Kicad,Pcbnew,(5.1.6)-1
; #@! TF.FileFunction,Plated,1,2,PTH
FMAT,2
METRIC
T1C0.400
T2C0.600
T3C1.000
T4C1.500
T5C2.200
%
G90
G05
T1
X132.02Y-30.13
X159.65Y-42.0
X161.04Y-42.0
X161.17Y-35.39
X161.26Y-33.21
X161.38Y-39.18
X162.47Y-42.0
X167.78Y-40.13
X167.93Y-32.26
X169.24Y-33.21
X170.92Y-38.07
X171.01Y-48.7
X171.17Y-42.3
X171.38Y-80.41
X172.05Y-53.23
X172.18Y-60.3
X172.2Y-49.5
X172.85Y-54.02
X173.352Y-33.053
X173.65Y-54.79
X174.45Y-35.63
X175.66Y-33.77
X178.51Y-35.72
X178.86Y-60.27
X179.09Y-56.75
X181.74Y-99.26
X182.66Y-32.0
X182.96Y-39.16
X184.1Y-39.16
X184.28Y-40.54
X184.32Y-31.91
X185.04Y-38.45
X185.107Y-79.913
X185.11Y-46.7
X185.28Y-40.54
X186.97Y-47.62
X187.27Y-39.03
X188.75Y-47.71
X189.45Y-31.85
X191.54Y-31.15
X191.59Y-79.92
X192.51Y-45.51
X193.603Y-97.557
X194.727Y-38.572
X195.59Y-33.48
X197.03Y-35.32
X197.31Y-33.48
X198.92Y-35.32
X199.59Y-52.18
X201.32Y-97.56
X201.431Y-59.299
X207.75Y-115.2
X225.747Y-123.933
X172.575Y-29.205
X172.575Y-30.53
X173.425Y-30.53
X173.43Y-29.205
X174.275Y-30.53
X174.28Y-29.205
X175.125Y-30.53
X175.13Y-29.205
X175.975Y-30.53
X175.98Y-29.205
X176.825Y-30.53
X176.83Y-29.205
X177.675Y-30.53
X177.68Y-29.205
X178.525Y-30.53
X178.53Y-29.205
T3
X215.646Y-26.416
X148.844Y-26.416
X218.186Y-26.416
X138.684Y-26.416
X213.106Y-26.416
X220.726Y-26.416
X208.026Y-26.416
X146.304Y-26.416
X141.224Y-26.416
X143.764Y-26.416
X133.604Y-26.416
X136.144Y-26.416
X210.566Y-26.416
X151.384Y-26.416
T4
X332.115Y-98.093
X338.465Y-95.552
X217.245Y-64.322
X222.929Y-60.518
X318.91Y-36.18
X325.26Y-33.64
X188.597Y-89.887
X194.281Y-86.083
X89.751Y-74.441
X96.491Y-73.277
X222.601Y-43.708
X228.285Y-39.903
X62.58Y-36.18
X68.93Y-33.64
X280.81Y-36.18
X287.16Y-33.64
X81.63Y-34.68
X87.98Y-32.14
X241.235Y-39.747
X246.919Y-35.943
X342.723Y-31.417
X349.073Y-28.877
X127.019Y-82.363
X133.758Y-81.198
X203.967Y-47.669
X209.651Y-43.864
X318.32Y-55.23
X324.669Y-52.69
X156.365Y-127.552
X163.104Y-126.387
X113.741Y-99.016
X120.48Y-97.852
X315.446Y-74.28
X321.796Y-71.74
X108.385Y-78.402
X115.124Y-77.238
X261.76Y-34.68
X268.11Y-32.14
X68.64Y-74.28
X74.99Y-71.74
X185.334Y-51.63
X191.018Y-47.825
X332.115Y-117.143
X338.465Y-114.603
X313.065Y-117.143
X319.415Y-114.603
X139.599Y-46.085
X146.338Y-44.921
X208.165Y-124.68
X213.848Y-120.875
X351.165Y-117.143
X357.515Y-114.603
X126.321Y-62.739
X133.06Y-61.574
X120.965Y-42.125
X127.704Y-40.96
X294.5Y-55.23
X300.85Y-52.69
X95.805Y-114.679
X102.545Y-113.514
X275.45Y-55.23
X281.8Y-52.69
X43.034Y-93.33
X49.384Y-90.79
X299.86Y-36.18
X306.21Y-33.64
X132.375Y-102.977
X139.114Y-101.812
X215.849Y-103.57
X221.533Y-99.765
X144.955Y-66.699
X151.694Y-65.535
X107.688Y-58.778
X114.427Y-57.614
X244.498Y-78.005
X250.182Y-74.2
X95.107Y-95.055
X101.847Y-93.891
X301.159Y-93.33
X307.509Y-90.79
X158.233Y-50.046
X164.972Y-48.882
X151.009Y-106.937
X157.748Y-105.773
X207.23Y-85.927
X212.914Y-82.122
X179.977Y-72.244
X185.661Y-68.439
X225.864Y-81.966
X231.548Y-78.161
X67.94Y-55.23
X74.29Y-52.69
X254.512Y-56.401
X260.196Y-52.596
X42.446Y-74.28
X48.796Y-71.74
X234.483Y-99.609
X240.167Y-95.805
X346.895Y-50.468
X353.245Y-47.927
X43.53Y-36.18
X49.88Y-33.64
X145.653Y-86.323
X152.392Y-85.159
X198.611Y-68.283
X204.295Y-64.478
X235.879Y-60.362
X241.563Y-56.557
X73.99Y-93.33
X80.34Y-90.79
X274.965Y-93.33
X281.315Y-90.79
X89.054Y-54.817
X95.793Y-53.653
X284.49Y-74.28
X290.84Y-71.74
X351.165Y-69.517
X357.515Y-66.977
X128.414Y-121.61
X135.153Y-120.446
X197.216Y-107.531
X202.9Y-103.726
X44.13Y-55.23
X50.48Y-52.69
X253.117Y-95.649
X258.801Y-91.844
X102.331Y-38.164
X109.071Y-37.0
X247.761Y-116.263
X253.444Y-112.458
X35.9Y-112.38
X42.25Y-109.84
X265.44Y-74.28
X271.79Y-71.74
T5
X56.865Y-48.245
X51.197Y-114.92
X345.45Y-110.158
X241.06Y-120.609
X121.827Y-27.932
X341.18Y-43.482
X109.959Y-120.609
X229.193Y-27.932
T2
G00X171.225Y-25.77
M15
G01X171.225Y-26.57
M16
G05
G00X171.225Y-28.8
M15
G01X171.225Y-30.3
M16
G05
G00X179.875Y-25.77
M15
G01X179.875Y-26.57
M16
G05
G00X179.875Y-28.8
M15
G01X179.875Y-30.3
M16
G05
T0
M30
